<svg xmlns="http://www.w3.org/2000/svg" viewBox="0 0 128 128">
  <path fill="#83CD29" d="M112.771 30.334L68.674 4.729c-2.781-1.584-6.402-1.584-9.205 0L14.901 30.334C12.031 31.985 10.14 35.088 10.14 38.407v51.142c0 3.319 1.891 6.423 4.762 8.083l11.274 6.688c6.152 3.037 8.397 3.037 11.274 3.037 9.205 0 14.465-5.587 14.465-15.235V54.609c0-.539-.429-.991-.956-.991H45.161c-.527 0-.956.452-.956.991v37.513c0 5.587-5.784 11.274-15.235 5.784L17.696 91.218c-.956-.539-1.584-1.584-1.584-2.617V38.407c0-1.033.628-2.078 1.584-2.617L61.793 10.185c.956-.539 2.078-.539 3.037 0L108.927 35.79c.956.539 1.584 1.584 1.584 2.617v50.186c0 1.033-.628 2.078-1.584 2.617L64.83 117.815c-.956.539-2.078.539-3.037 0l-11.274-6.688c-.628-.429-1.584-.956-2.617-.539-2.78 1.584-3.319 1.584-5.784 2.617-.628.429-1.584.956-1.584 1.584 0 .628.956 1.584 1.584 2.078l14.465 8.397c2.781 1.584 6.402 1.584 9.205 0l44.097-25.605c2.869-1.651 4.762-4.754 4.762-8.083V38.407c0-3.319-1.893-6.423-4.762-8.073z"/>
  <path fill="#83CD29" d="M97.078 81.445c-11.274 0-13.549-5.157-14.465-7.764-.429-.956-.956-1.584-1.956-1.584h-5.157c-.956 0-1.956.628-1.956 1.584 0 3.319 1.956 14.465 23.534 14.465 14.465 0 22.859-5.784 22.859-15.235 0-9.205-6.152-11.274-19.701-12.859-13.549-1.584-14.465-2.617-14.465-5.784 0-2.617 1.584-6.152 12.859-6.152 9.205 0 12.859 1.956 14.465 8.397.429.956.956 1.584 1.956 1.584h5.157c.539 0 .956-.429 1.584-.956.429-.539.628-.956.628-1.584-.956-11.274-8.397-16.461-23.534-16.461-13.549 0-21.615 5.784-21.615 15.235 0 9.205 7.764 11.274 19.701 12.859 14.465 1.956 14.465 3.319 14.465 5.784.001 4.226-3.319 6.688-12.859 6.688z"/>
</svg>
