<svg xmlns="http://www.w3.org/2000/svg" viewBox="0 0 128 128">
  <path fill="#764abc" d="M88.69 88.11c-9 18.4-24.76 30.78-45.61 34.85a39.73 39.73 0 01-9.77 1.14c-12 0-23-5-28.34-13.19C-2.2 100-4.64 76.87 19 59.76c.48 2.61 1.46 6.19 2.11 8.31A38.24 38.24 0 0010 81.1c-4.4 8.64-3.91 17.27 1.3 25.25 3.6 5.38 9.3 8.65 16.63 9.65a44 44 0 0026.55-5c12.71-6.68 21.18-14.66 26.72-25.57a9.32 9.32 0 01-2.61-6A9.12 9.12 0 0187.37 70h.34a9.15 9.15 0 011 18.25zm28.67-20.2c12.21 13.84 12.54 30.13 7.82 39.58-4.4 8.63-16.86 15.77-30.43 15.77-9.33 0-18.92-2.79-27.31-8.67-1.85-1.33-3.71-2.7-5.55-4.10 2.29-1.85 5.4-4.10 7.78-5.25 2.16 1.44 4.14 2.70 6.05 3.97 5.92 4.01 12.35 6.2 18.05 6.2 8.19 0 14.24-2.46 17.16-6.92 2.79-4.11 2.54-8.93-.114-14.25-3.12-6.07-7.9-12.04-13.4-16.73a8.99 8.99 0 01-1.85-6.32 9.06 9.06 0 0117.61-2.3c.09.26.18.52.25.79zm-44.73-23.1c9.33 0 17.15-7.5 17.15-16.59s-7.82-16.59-17.15-16.59-17.15 7.5-17.15 16.59 7.82 16.59 17.15 16.59zm0-26.16c5.61 0 10.14 4.12 10.14 9.57 0 5.44-4.53 9.56-10.14 9.56s-10.14-4.12-10.14-9.56c0-5.45 4.53-9.57 10.14-9.57z"/>
</svg>
