<svg xmlns="http://www.w3.org/2000/svg" version="1.1" xmlns:xlink="http://www.w3.org/1999/xlink" width="200" height="200"><svg xmlns="http://www.w3.org/2000/svg" version="1.1" xmlns:xlink="http://www.w3.org/1999/xlink" viewBox="0 0 200 200"><rect width="200" height="200" fill="url('#gradient')"></rect><defs><linearGradient id="SvgjsLinearGradient1001" gradientTransform="rotate(45 0.5 0.5)"><stop offset="0%" stop-color="#000000"></stop><stop offset="100%" stop-color="#000000"></stop></linearGradient></defs><g><g fill="#e8e8e8" transform="matrix(1.5455917606321583,0,0,1.5455917606321583,13.342062556795483,110.83631685674905)" stroke="#060606" stroke-width="0"><path d="M8.94 0L5.91-5.29L4.50-3.75L4.50 0L1.07 0L1.07-14.22L4.50-14.22L4.50-7.95L5.69-9.76L8.76-14.22L13.00-14.22L8.19-7.93L13.00 0L8.94 0ZM18.57 0.20L18.57 0.20Q16.14 0.20 14.64-1.25Q13.13-2.71 13.13-5.03L13.13-5.03L13.13-5.30Q13.13-6.92 13.74-8.16Q14.34-9.40 15.49-10.08Q16.64-10.76 18.22-10.76L18.22-10.76Q20.45-10.76 21.74-9.38Q23.03-8.00 23.03-5.53L23.03-5.53L23.03-4.25L16.48-4.25Q16.66-3.36 17.26-2.85Q17.85-2.34 18.80-2.34L18.80-2.34Q20.36-2.34 21.24-3.44L21.24-3.44L22.74-1.66Q22.13-0.81 21.00-0.31Q19.87 0.20 18.57 0.20ZM18.20-8.22L18.20-8.22Q16.76-8.22 16.48-6.31L16.48-6.31L19.80-6.31L19.80-6.56Q19.82-7.35 19.40-7.79Q18.98-8.22 18.20-8.22ZM24.29-10.57L27.37-10.57L27.48-9.33Q28.57-10.76 30.50-10.76L30.50-10.76Q32.15-10.76 32.96-9.78Q33.78-8.79 33.81-6.81L33.81-6.81L33.81 0L30.51 0L30.51-6.67Q30.51-7.47 30.19-7.85Q29.86-8.22 29.01-8.22L29.01-8.22Q28.05-8.22 27.58-7.46L27.58-7.46L27.58 0L24.29 0L24.29-10.57ZM45.44 0L40.76 0L40.76-14.22L45.34-14.22Q47.23-14.22 48.73-13.36Q50.23-12.51 51.08-10.95Q51.92-9.39 51.93-7.46L51.93-7.46L51.93-6.81Q51.93-4.85 51.11-3.31Q50.28-1.76 48.78-0.88Q47.29-0.01 45.44 0L45.44 0ZM45.34-11.57L44.19-11.57L44.19-2.64L45.38-2.64Q46.86-2.64 47.65-3.69Q48.44-4.74 48.44-6.81L48.44-6.81L48.44-7.42Q48.44-9.48 47.65-10.53Q46.86-11.57 45.34-11.57L45.34-11.57ZM54.38-3.19L54.38-3.19Q55.17-3.19 55.68-2.73Q56.20-2.27 56.20-1.54Q56.20-0.82 55.68-0.36Q55.17 0.11 54.38 0.11L54.38 0.11Q53.59 0.11 53.08-0.36Q52.57-0.83 52.57-1.54Q52.57-2.26 53.08-2.72Q53.59-3.19 54.38-3.19ZM69.14-4.82L66.95-4.82L66.95 0L63.53 0L63.53-14.22L69.20-14.22Q70.83-14.22 72.08-13.62Q73.34-13.02 74.03-11.91Q74.72-10.80 74.72-9.39L74.72-9.39Q74.72-7.31 73.23-6.07Q71.74-4.82 69.14-4.82L69.14-4.82ZM66.95-11.57L66.95-7.47L69.20-7.47Q70.20-7.47 70.72-7.97Q71.24-8.47 71.24-9.38L71.24-9.38Q71.24-10.37 70.70-10.97Q70.17-11.56 69.24-11.57L69.24-11.57L66.95-11.57ZM82.78 0L82.69-1.14Q81.64 0.20 79.86 0.20L79.86 0.20Q78.13 0.20 77.23-0.82Q76.34-1.83 76.34-3.72L76.34-3.72L76.34-10.57L79.63-10.57L79.63-3.70Q79.63-2.34 80.95-2.34L80.95-2.34Q82.08-2.34 82.56-3.15L82.56-3.15L82.56-10.57L85.87-10.57L85.87 0L82.78 0ZM88.21-13.19L91.50-13.19L91.50-10.57L93.24-10.57L93.24-8.28L91.50-8.28L91.50-3.45Q91.50-2.85 91.72-2.62Q91.93-2.38 92.57-2.38L92.57-2.38Q93.06-2.38 93.39-2.44L93.39-2.44L93.39-0.09Q92.50 0.20 91.53 0.20L91.53 0.20Q89.83 0.20 89.02-0.61Q88.21-1.41 88.21-3.04L88.21-3.04L88.21-8.28L86.87-8.28L86.87-10.57L88.21-10.57L88.21-13.19ZM100.99-10.64L100.93-7.59L99.84-7.67Q98.29-7.67 97.85-6.69L97.85-6.69L97.85 0L94.56 0L94.56-10.57L97.65-10.57L97.75-9.21Q98.58-10.76 100.07-10.76L100.07-10.76Q100.60-10.76 100.99-10.64L100.99-10.64ZM111.06 0L107.77 0Q107.60-0.32 107.46-0.95L107.46-0.95Q106.55 0.20 104.92 0.20L104.92 0.20Q103.43 0.20 102.38-0.71Q101.34-1.61 101.34-2.98L101.34-2.98Q101.34-4.70 102.61-5.58Q103.88-6.46 106.30-6.46L106.30-6.46L107.31-6.46L107.31-7.01Q107.31-8.47 106.05-8.47L106.05-8.47Q104.88-8.47 104.88-7.31L104.88-7.31L101.59-7.31Q101.59-8.85 102.90-9.80Q104.20-10.76 106.22-10.76Q108.24-10.76 109.41-9.78Q110.59-8.79 110.62-7.07L110.62-7.07L110.62-2.39Q110.63-0.94 111.06-0.17L111.06-0.17L111.06 0ZM105.71-2.15L105.71-2.15Q106.33-2.15 106.73-2.41Q107.14-2.68 107.31-3.01L107.31-3.01L107.31-4.70L106.36-4.70Q104.64-4.70 104.64-3.15L104.64-3.15Q104.64-2.71 104.94-2.43Q105.24-2.15 105.71-2.15Z"></path></g></g></svg><style>@media (prefers-color-scheme: light) { :root { filter: none; } }
@media (prefers-color-scheme: dark) { :root { filter: none; } }
</style></svg>