<svg xmlns="http://www.w3.org/2000/svg" version="1.1" xmlns:xlink="http://www.w3.org/1999/xlink" width="200" height="200"><svg xmlns="http://www.w3.org/2000/svg" version="1.1" xmlns:xlink="http://www.w3.org/1999/xlink" viewBox="0 0 200 200"><rect width="200" height="200" fill="url('#gradient')"></rect><defs><linearGradient id="SvgjsLinearGradient1006" gradientTransform="rotate(45 0.5 0.5)"><stop offset="0%" stop-color="#000000"></stop><stop offset="100%" stop-color="#000000"></stop></linearGradient></defs><g><g fill="#000000" transform="matrix(4.9638344226579525,0,0,4.9638344226579525,5.68323830192125,135.29223827432702)" stroke="#ffffff" stroke-width="0.25"><path d="M8.94 0L5.91-5.29L4.50-3.75L4.50 0L1.07 0L1.07-14.22L4.50-14.22L4.50-7.95L5.69-9.76L8.76-14.22L13.00-14.22L8.19-7.93L13.00 0L8.94 0ZM22.69-8.57L22.69-6.03L17.29-6.03L17.29-2.64L23.66-2.64L23.66 0L13.87 0L13.87-14.22L23.68-14.22L23.68-11.57L17.29-11.57L17.29-8.57L22.69-8.57ZM36.93-14.22L36.93 0L33.53 0L28.49-8.85L28.49 0L25.06 0L25.06-14.22L28.49-14.22L33.52-5.37L33.52-14.22L36.93-14.22Z"></path></g></g></svg><style>@media (prefers-color-scheme: light) { :root { filter: contrast(1) brightness(1); } }
@media (prefers-color-scheme: dark) { :root { filter: none; } }
</style></svg>